<?xml version="1.0" encoding="UTF-8"?>
<svg id="katman_1" data-name="katman 1" xmlns="http://www.w3.org/2000/svg" viewBox="0 0 512 512">
  <defs>
    <style>
      .cls-1, .cls-2, .cls-3 {
        stroke-miterlimit: 10;
        stroke-width: .88px;
      }

      .cls-1, .cls-2, .cls-3, .cls-4 {
        stroke: #f9fafb;
      }

      .cls-1, .cls-4 {
        fill: none;
      }

      .cls-2, .cls-5 {
        fill: #f9fafb;
      }

      .cls-3 {
        fill: #3c45b9;
      }

      .cls-4 {
        stroke-width: 12.1px;
      }
    </style>
  </defs>
  <g>
    <path class="cls-5" d="M86.05,422.5l9.24,6.34-.72.89c-5.09,6.36-12.56,9.72-21.6,9.72-16.38,0-26.97-10.88-26.97-27.7s10.59-27.7,26.97-27.7c9.04,0,16.51,3.36,21.6,9.72l.72.89-9.24,6.34-.62-.77c-3.01-3.73-7.2-5.62-12.45-5.62-9.81,0-15.67,6.4-15.67,17.13s5.86,17.13,15.67,17.13c5.25,0,9.44-1.89,12.45-5.62l.62-.76Z"/>
    <path class="cls-5" d="M118.17,399.16c-11.96,0-20,8.01-20,19.92s7.95,20.07,19.33,20.07c3.9,0,7.38-1.01,9.8-2.77v2.11h10.93v-19.26c0-12-8.06-20.07-20.07-20.07ZM118.25,428.96c-5.72,0-9.13-3.66-9.13-9.8s3.41-9.79,9.13-9.79,9.06,3.66,9.06,9.79-3.39,9.8-9.06,9.8Z"/>
    <path class="cls-5" d="M205.38,415.56v22.93h-10.93v-22.71c0-4.79-3.62-6.49-7-6.49s-7.01,1.71-7.01,6.49v22.71h-10.93v-22.71c0-4.79-3.62-6.49-7-6.49s-7.01,1.71-7.01,6.49v22.71h-10.93v-22.93c0-3.82,1.56-7.88,4.17-10.84,2.29-2.6,6.54-5.71,13.78-5.71,5.39,0,9.58,1.74,12.47,5.18,2.89-3.44,7.08-5.18,12.47-5.18,7.23,0,11.48,3.1,13.78,5.71,2.61,2.96,4.16,7.01,4.16,10.84Z"/>
    <path class="cls-5" d="M245.94,404.6c-3.6-3.6-8.56-5.51-14.33-5.51s-10.69,1.88-14.32,5.29c-3.86,3.62-5.89,8.68-5.89,14.64v34.16h10.93v-16.85c2.41,1.76,5.86,2.76,9.72,2.76,11.43,0,19.41-8.25,19.41-20.07,0-5.82-1.91-10.81-5.52-14.42ZM231.39,428.88c-5.67,0-9.06-3.66-9.06-9.8s3.39-9.79,9.06-9.79,9.13,3.66,9.13,9.79-3.41,9.8-9.13,9.8Z"/>
    <path class="cls-5" d="M292.55,399.68v22.93c0,3.82-1.56,7.88-4.16,10.84-2.29,2.6-6.55,5.71-13.78,5.71s-11.49-3.1-13.78-5.71c-2.61-2.96-4.17-7.01-4.17-10.84v-22.93h10.93v22.71c0,4.79,3.62,6.49,7.01,6.49s7-1.71,7-6.49v-22.71h10.93Z"/>
    <path class="cls-5" d="M329.24,426.35c0,7.76-5.89,12.58-15.37,12.58-8.07,0-13.33-3.67-15.75-5.85l-.69-.62,5.93-8.7.91.87c2.74,2.61,6.33,4.11,9.83,4.11.7,0,4.22-.1,4.22-2.09,0-1.63-2.43-2.39-6.43-3.46-5.71-1.52-13.53-3.6-13.53-12.39,0-7.33,5.39-11.7,14.42-11.7,7.91,0,12.88,3.32,15.94,5.82l.76.62-5.91,8.59-.9-.74c-4.06-3.38-7.7-4.08-10.03-4.08-2.03,0-3.34.53-3.34,1.36,0,1.24,2.81,1.97,5.79,2.74,5.98,1.56,14.17,3.69,14.17,12.96Z"/>
    <path class="cls-5" d="M383.67,385h-11.13l-18.34,53.49h11.88l4.26-13.58h15.53l4.26,13.58h11.88l-18.34-53.49ZM373.65,414.35l4.42-14.03,4.42,14.03h-8.84Z"/>
    <path class="cls-5" d="M423.82,399.02v10.2h-1.06c-5.53,0-8.33,2.58-8.33,7.67v21.61h-10.93v-21.61c0-11.36,7.02-17.87,19.26-17.87h1.06Z"/>
    <path class="cls-5" d="M465.99,423.08l-.3,1.31c-2.12,9.11-9.57,14.77-19.46,14.77-12,0-20.07-8.06-20.07-20.07s8.06-19.92,20.07-19.92c9.91,0,17.33,5.58,19.38,14.55l.3,1.3h-11.21l-.28-.65c-1.38-3.23-4.32-5-8.27-5-5.68,0-9.06,3.66-9.06,9.79s3.38,9.8,9.06,9.8c3.99,0,6.95-1.85,8.33-5.21l.27-.66h11.23Z"/>
  </g>
  <g>
    <path class="cls-1" d="M281.72,239.48c2.95-2.54,5.45-5.39,7.5-8.46,4.68-7.34,7.15-16.21,6.44-25.68,0-.12-.01-.24-.02-.36-1.49-15.99-12.03-29.42-26.42-35.09-13.08-4.02-27.76-1.52-38.85,7.51-9.47,8.34-15.17,20.87-14.14,34.65,0,.12.01.24.02.36.43,4.6,1.61,8.99,3.41,13.05,2.43,5.19,5.97,9.98,10.64,14,1,.86,1.91,1.76,2.74,2.68,6.55,4.87,14.56,7.88,23.24,8.23,8.61-.49,16.54-3.6,23-8.54.75-.81,1.55-1.6,2.44-2.36Z"/>
    <path class="cls-4" d="M387.93,177.72l-26.23-14.65-12.92,45.7,12.4,43.76,26.78-14.97c23.4-13.09,23.39-46.76-.02-59.83Z"/>
    <path class="cls-3" d="M281.72,239.48c-.89.76-1.69,1.55-2.44,2.36,3.91-2.99,7.29-6.65,9.94-10.82-2.06,3.06-4.55,5.92-7.5,8.46Z"/>
    <path class="cls-2" d="M289.97,205.54c-.1-2.41.03-4.11-.45-6.39.02.12-.33.66-.3.78,1.79,9.32-.75,20.77-3.09,25.82-2.08,4.48-5.1,8.46-8.64,11.88-5.85,5.65-8.31,5.39-16.81,6.86,1.61-.12-1.82,3.92-.19,3.61,1.37-.26,2.7-.42,4-.49,8.49-2.77,20.74-8.52,26.2-16.59,2.93-4.33,1.97-7.05,5.81-8.86-3.52-3.96-6.26-9.95-6.53-16.63Z"/>
    <path class="cls-4" d="M345.36,220.86c-2.73,9.66-9.28,15.32-16.76,17.47,5.3,7.15,6.96,17.01,1.35,27.06l-28.7,51.38,25.91,7.32c25.8,7.29,49.61-16.53,42.3-42.32l-8.29-29.25-12.4-43.76-3.42,12.09Z"/>
    <path class="cls-4" d="M329.95,265.39c5.61-10.05,3.96-19.91-1.35-27.06-10.3,2.97-22.37-.71-28.66-9.69-4.03,1.36-7.92,3.9-11.33,7.86-6.36,7.39-14.64,11.97-23.39,13.75,27.06,1.65,32.83,41.74,4.78,49.68l-57.86,16.39,14.78,26.43c13.09,23.4,46.76,23.39,59.83-.02l14.5-25.97,28.7-51.38Z"/>
    <path class="cls-3" d="M216.32,214.79c.63,3.66,1.74,7.25,3.34,10.67-1.8-4.05-2.98-8.44-3.41-13.05.05.81.08,1.6.06,2.37Z"/>
    <path class="cls-4" d="M270,299.95c28.05-7.95,22.29-48.03-4.78-49.68-1.3-.08-2.64-.07-4.03.03-1.66.12-3.29.15-4.91.08-8.68-.35-16.69-3.36-23.24-8.23,18.22,20.3-6.1,52.91-31.62,38.66l-50.7-28.32-8.29,29.31c-7.29,25.8,16.53,49.61,42.32,42.3l27.39-7.76,57.86-16.39Z"/>
    <path class="cls-4" d="M201.42,280.81c25.52,14.25,49.84-18.36,31.62-38.66-.83-.92-1.73-1.82-2.74-2.68-4.67-4.02-8.21-8.81-10.64-14-1.6-3.42-2.72-7.01-3.34-10.67-.43,28.17-41.66,34.58-49.73,6.08l-16.36-57.73-26.18,14.64c-23.4,13.09-23.39,46.76.02,59.83l26.65,14.88,50.7,28.32Z"/>
    <path class="cls-4" d="M166.58,220.87c8.07,28.5,49.31,22.1,49.73-6.08.01-.77-.01-1.57-.06-2.37,0-.12,0-.24-.02-.36-1.04-13.78,4.66-26.31,14.14-34.65-1.9,1.55-3.7,3.28-5.36,5.22-19.92,23.17-56.24-2.2-41.34-28.88l29.3-52.46-28.23-7.98c-25.8-7.29-49.61,16.53-42.3,42.32l7.79,27.51,16.36,57.73Z"/>
    <path class="cls-4" d="M183.67,153.75c-14.9,26.68,21.42,52.05,41.34,28.88,1.66-1.93,3.46-3.67,5.36-5.22,11.08-9.03,25.76-11.54,38.85-7.51-5.68-2.24-11.95-3.28-18.51-2.78-30.47,2.29-38.21-41.32-8.81-49.65l58.51-16.58-13.7-24.51c-13.09-23.4-46.76-23.39-59.83.02l-13.9,24.89-29.3,52.46Z"/>
    <path class="cls-4" d="M241.9,117.46c-29.4,8.33-21.66,51.95,8.81,49.65,6.56-.49,12.83.55,18.51,2.78,14.39,5.67,24.94,19.1,26.42,35.09.22,2.32.24,4.69.06,7.1-.5,6.66,1.2,12.23,4.24,16.57,6.3,8.98,18.36,12.65,28.66,9.69,7.48-2.15,14.02-7.81,16.76-17.47l3.42-12.09,12.92-45.7,7.76-27.46c7.29-25.8-16.53-49.61-42.32-42.3l-26.74,7.57-58.51,16.58Z"/>
  </g>
</svg>